<svg width="42" height="42" viewBox="0 0 42 42" fill="none" xmlns="http://www.w3.org/2000/svg">
<path d="M21.0246 0C18.1837 0 15.8806 2.303 15.8806 5.14397C15.8806 7.98493 18.1837 10.2879 21.0246 10.2879C23.8656 10.2879 26.1686 7.98493 26.1686 5.14397C26.1686 5.14362 26.1686 5.14328 26.1686 5.14294C26.1686 2.30257 23.866 0 21.0257 0C21.0253 0 21.025 0 21.0246 0ZM21.0246 8.84149C18.9825 8.84089 17.3275 7.18502 17.3281 5.14294C17.3287 3.10086 18.9846 1.44585 21.0267 1.44645C23.068 1.44705 24.7227 3.10163 24.7232 5.14294C24.7212 7.18476 23.0665 8.83952 21.0246 8.84149Z" fill="#DDDDDD"/>
<path d="M35.0489 8.40506V32.9976C35.0493 33.4868 34.8025 33.9431 34.3928 34.2104L26.6724 39.23H25.583V40.7153C25.5827 41.423 25.0102 41.9973 24.3025 41.9999H24.2401C23.5303 41.9999 22.955 41.4246 22.955 40.7148V39.2295H22.1514V41.9999H19.6175V39.2284H18.7739V40.7138C18.7745 41.4233 18.1999 41.999 17.4903 41.9999C16.7806 41.9999 16.2052 41.4246 16.2052 40.7148V39.2295H15.1158L7.64079 34.2145C7.24045 33.9459 7.00017 33.4955 7 33.0134V8.40506C7 6.80712 8.29538 5.51166 9.89341 5.51166H32.1554C33.7534 5.51174 35.0489 6.80712 35.0489 8.40506Z" fill="#DDDDDD"/>
<path d="M15.5563 37.7815L8.44656 33.0114V8.40506C8.44742 7.60626 9.09472 6.95896 9.89352 6.9581H32.1555C32.9543 6.95896 33.6016 7.60626 33.6025 8.40506V32.9976L26.2417 37.7815L15.5563 37.7815Z" fill="#E1393A"/>
<path d="M10.9372 13.9512H31.1115V16.7242H10.9372V13.9512Z" fill="#3E3E3E"/>
<path d="M10.9372 16.7237H31.1115V28.5795H10.9372V16.7237Z" fill="#DDDDDD"/>
<path d="M23.9168 37.46H24.6211V41.2768H23.9168V37.46Z" fill="#EF5261"/>
<path d="M20.5312 37.46H21.2355V42.0001H20.5312V37.46Z" fill="#EF5261"/>
<path d="M17.0651 37.4599H17.7694V41.2768H17.0651V37.4599Z" fill="#EF5261"/>
<path d="M12.4637 22.4695H21.7877V23.0339H12.4637V22.4695Z" fill="white"/>
<path d="M12.4637 24.5193H29.6647V25.0837H12.4637V24.5193Z" fill="white"/>
<path d="M12.4637 26.5686H29.6647V27.1331H12.4637V26.5686Z" fill="white"/>
<path d="M25.5832 21.4476L25.0592 23.0355H24.3851L26.0984 17.9919H26.8846L28.6051 23.034H27.9085L27.3697 21.4462L25.5832 21.4476ZM27.2371 20.939L26.7433 19.4869C26.6306 19.1582 26.5563 18.8585 26.4811 18.565H26.4658C26.391 18.8647 26.3085 19.1714 26.2096 19.4783L25.7154 20.9375L27.2371 20.939Z" fill="#3E3E3E"/>
</svg>
