<svg width="42" height="42" viewBox="0 0 42 42" fill="none" xmlns="http://www.w3.org/2000/svg">
<g clip-path="url(#clip0_2_106)">
<path d="M10.0382 3.64176e-08C8.35899 0.000257106 6.99797 1.36179 6.99823 3.04088C6.99849 4.72006 8.35993 6.08108 10.0391 6.08073C11.7183 6.08048 13.0793 4.71903 13.079 3.03985C13.079 3.03968 13.079 3.03951 13.079 3.03934C13.0787 1.3605 11.7175 -0.000257034 10.0386 3.64176e-08C10.0385 3.64176e-08 10.0383 3.64176e-08 10.0382 3.64176e-08ZM10.0382 5.22443C8.83114 5.22418 7.8529 4.24542 7.85316 3.0384C7.85342 1.83137 8.83217 0.853129 10.0392 0.853387C11.2458 0.853644 12.224 1.83179 12.2242 3.0384C12.223 4.24517 11.2449 5.22323 10.0382 5.22443Z" fill="#DDDDDD"/>
<path d="M18.3275 4.96823V19.5023C18.3276 19.7918 18.1811 20.0617 17.9382 20.2193L13.375 23.185H12.7343V24.0634C12.7343 24.4829 12.3942 24.8229 11.9747 24.8229H11.9379C11.5183 24.8229 11.1783 24.4828 11.1783 24.0634V23.1845H10.7035V24.8235H9.28678V23.1845H8.70854V24.0629C8.70854 24.4824 8.36844 24.8224 7.94898 24.8224C7.52945 24.8224 7.18943 24.4823 7.18943 24.0629V23.1845H6.54667L2.12849 20.2198C1.8919 20.0611 1.75 19.7949 1.75 19.5099V4.96823C1.75 4.02367 2.51573 3.25803 3.4602 3.25803H16.6164C17.561 3.25743 18.3272 4.02272 18.3277 4.9672C18.3275 4.96754 18.3275 4.96788 18.3275 4.96823Z" fill="#DDDDDD"/>
<path d="M6.80725 22.3317L2.60724 19.5147V4.96837C2.60784 4.49647 2.99019 4.11404 3.46208 4.11353H16.6163C17.0888 4.11327 17.4721 4.49587 17.4727 4.96837V19.5024L13.1221 22.3318H6.80725V22.3317Z" fill="#E1393A"/>
<path d="M4.07727 8.24545H16.0007V9.88445H4.07727V8.24545Z" fill="#3E3E3E"/>
<path d="M4.07727 9.88443H16.0007V16.8912H4.07727V9.88443Z" fill="#DDDDDD"/>
<path d="M11.7484 22.1398H12.1644V24.3955H11.7484V22.1398Z" fill="#E1393A"/>
<path d="M9.67093 22.1398H10.3076V24.8232H9.67093V22.1398Z" fill="#E1393A"/>
<path d="M7.69897 22.1398H8.11491V24.3955H7.69897V22.1398Z" fill="#E1393A"/>
<path d="M4.97922 13.2803H10.4899V13.6137H4.97922V13.2803Z" fill="white"/>
<path d="M4.97922 14.491H15.1452V14.8244H4.97922V14.491Z" fill="white"/>
<path d="M4.97922 15.7024H15.1452V16.0358H4.97922V15.7024Z" fill="white"/>
<path d="M12.7328 12.6759L12.4255 13.6137H12.0276L13.0402 10.6327H13.5047L14.5219 13.6137H14.1121L13.7935 12.6759H12.7328ZM13.7101 12.3753L13.4181 11.5174C13.3516 11.3228 13.3075 11.146 13.2645 10.9734H13.2552C13.2112 11.1506 13.1625 11.3319 13.1052 11.5132L12.8133 12.3758L13.7101 12.3753Z" fill="#3E3E3E"/>
<path d="M37.0287 13.9025C37.2134 13.9023 37.3844 13.805 37.479 13.6464L38.5172 11.9101C38.5172 11.9101 39.5697 10.2756 40.6346 10.8345C40.8486 10.9489 40.953 11.1978 40.8845 11.4307C40.7086 11.8789 40.4446 12.2873 40.108 12.6318C39.9616 12.7984 39.8307 12.9781 39.7172 13.1686L39.712 13.1768C39.366 13.763 39.1021 14.3939 38.9279 15.052C38.8665 15.2809 38.7807 15.5027 38.6718 15.7132C37.693 17.6248 36.5969 19.4739 35.3896 21.2501C35.0402 21.7524 34.8673 22.3563 34.8979 22.9675L35.7348 39.7034H26.3106L27.0174 23.6958C27.0473 23.1133 26.9766 22.5301 26.8084 21.9717C26.6429 21.4788 26.3879 21.0206 26.0565 20.62C24.65 18.8663 25.4316 14.6647 25.4316 14.6647L25.4639 13.5538C25.4902 12.6419 25.4628 11.7293 25.382 10.8207L24.9139 5.53172C24.8803 5.15237 25.1347 4.80755 25.507 4.7276C25.9145 4.64046 26.3154 4.90001 26.4027 5.30747C26.4073 5.32897 26.4109 5.35065 26.4136 5.37242L27.1307 11.1915C27.1526 11.3679 27.3088 11.4963 27.4861 11.4834L27.5768 11.4767C27.7562 11.4639 27.8932 11.3112 27.8867 11.1315L27.5819 2.9036C27.5584 2.26873 28.0541 1.73497 28.689 1.71149C28.7333 1.70986 28.7777 1.7108 28.8219 1.71423C29.4075 1.76024 29.8643 2.24011 29.8816 2.82726L30.1274 11.1448C30.133 11.3291 30.2869 11.4741 30.4713 11.4685C30.4717 11.4685 30.4723 11.4685 30.4727 11.4684L30.569 11.4653C30.7492 11.4592 30.8921 11.3112 30.8917 11.1309L30.8692 1.16667C30.868 0.52348 31.3885 0.00111398 32.0318 1.05584e-08H32.0375C32.6807 -8.56794e-05 33.2023 0.521424 33.2023 1.16461C33.2023 1.16907 33.2023 1.17352 33.2022 1.17798L33.112 11.1207C33.1103 11.3051 33.2585 11.456 33.4429 11.4577H33.446C33.6225 11.4578 33.7686 11.3204 33.7794 11.1442L34.3479 1.97593C34.3802 1.4539 34.8294 1.05681 35.3514 1.08895C35.3724 1.09023 35.3934 1.0922 35.4143 1.09495C35.8834 1.15527 36.2361 1.55262 36.2404 2.02563L36.3428 13.2263C36.3477 13.6016 36.6535 13.9031 37.0287 13.9025Z" fill="#FED19A"/>
<path d="M28.7788 27.2579H32.609C33.0938 27.2579 33.4869 27.6509 33.4869 28.1358C33.4869 28.6206 33.0938 29.0137 32.609 29.0137H28.7788C28.294 29.0137 27.9009 28.6206 27.9009 28.1358C27.9009 27.6509 28.294 27.2579 28.7788 27.2579Z" fill="#F4BB87"/>
<path d="M29.7746 32.0256H31.6134C31.6767 32.0256 31.7281 32.0769 31.7281 32.1403V32.3359C31.7281 32.3993 31.6768 32.4507 31.6134 32.4507H29.7746C29.7112 32.4507 29.6598 32.3994 29.6598 32.3359V32.1403C29.6598 32.0769 29.7111 32.0256 29.7746 32.0256Z" fill="white"/>
<path d="M30.0137 34.8122H31.3746C31.438 34.8122 31.4894 34.8635 31.4894 34.9269V35.1225C31.4894 35.1859 31.438 35.2373 31.3746 35.2373H30.0137C29.9504 35.2373 29.899 35.1859 29.899 35.1225V34.9269C29.899 34.8636 29.9504 34.8122 30.0137 34.8122Z" fill="white"/>
<path d="M30.9812 35.2371L30.8118 37.6865H30.5766L30.4066 35.2371H30.9812Z" fill="#DBD8DD"/>
<path d="M15.9135 42C12.4676 41.9966 9.67487 39.2043 9.67093 35.7584V24.823H10.3091V35.7583C10.311 38.8533 12.8215 41.3608 15.9164 41.3589C19.0087 41.357 21.5151 38.8506 21.517 35.7583V16.5608C21.517 13.9383 23.6428 11.8124 26.2653 11.8124C28.8878 11.8124 31.0136 13.9383 31.0136 16.5608V32.0255H30.3754V16.5608C30.3769 14.2909 28.5381 12.4497 26.2682 12.4483C23.9984 12.4468 22.1572 14.2856 22.1557 16.5555V16.5608V35.7578C22.152 39.2038 19.3595 41.9963 15.9135 42Z" fill="#E1393A"/>
<path d="M31.4705 32.4514L31.304 34.8151H30.0845L29.918 32.4514H31.4705Z" fill="#DBD8DD"/>
<path d="M30.0065 27.4484H31.3813V28.8231H30.0065V27.4484Z" fill="#DDA97A"/>
<path opacity="0.3" d="M30.3773 32.0228H31.0156V34.8143H30.3773V32.0228Z" fill="#EF5261"/>
</g>
<defs>
<clipPath id="clip0_2_106">
<rect width="42" height="42" fill="white"/>
</clipPath>
</defs>
</svg>
