<svg width="42" height="42" viewBox="0 0 42 42" fill="none" xmlns="http://www.w3.org/2000/svg">
<path d="M37.5145 7.85438C37.5145 14.4395 28.0906 23.3333 28.0906 23.3333C28.0906 23.3333 18.6667 14.555 18.6667 7.85438C18.6667 3.51654 22.8865 0 28.0919 0C33.2973 0 37.5172 3.51654 37.5172 7.85438H37.5145Z" fill="#E1393A"/>
<path d="M28.0906 13.6308C31.9564 13.6308 35.0903 11.0193 35.0903 7.79778C35.0903 4.57627 31.9564 1.96472 28.0906 1.96472C24.2248 1.96472 21.0909 4.57627 21.0909 7.79778C21.0909 11.0193 24.2248 13.6308 28.0906 13.6308Z" fill="white"/>
<path d="M29.7065 29.5527C28.4723 29.3167 27.4959 29.8261 26.6313 30.2709C25.7459 30.7294 24.0623 31.9434 23.0973 31.6326C18.1565 29.8244 13.5095 25.9803 11.498 21.5709C11.1434 20.6948 12.5028 19.1887 13.0147 18.3924C13.5114 17.6216 14.0726 16.7455 13.8167 15.6401C13.5854 14.6469 10.5936 11.2629 9.53565 10.3376C8.83795 9.72634 8.12318 9.39016 7.38945 9.33583C4.63086 9.23056 1.54996 12.5024 1.00962 13.2851C-0.344081 14.9542 -0.336497 17.175 1.03237 19.8679C4.3313 27.1009 16.8085 38.0167 24.9762 41.0594C26.4834 41.6859 27.8618 42 29.0998 42C30.3113 42 31.3901 41.6995 32.3173 41.1035C33.0169 40.7453 36.8485 37.8707 36.7481 35.3527C36.6874 34.7109 36.3101 34.0691 35.6314 33.4477C34.5981 32.4986 30.8157 29.7599 29.7065 29.5527" fill="#E1393A"/>
</svg>
