<svg width="38" height="43" viewBox="0 0 38 43" fill="none" xmlns="http://www.w3.org/2000/svg">
<path d="M15 2V5" stroke="#292D32" stroke-width="1.5" stroke-miterlimit="10" stroke-linecap="round" stroke-linejoin="round"/>
<path d="M23 2V5" stroke="#292D32" stroke-width="1.5" stroke-miterlimit="10" stroke-linecap="round" stroke-linejoin="round"/>
<path d="M10.5 9.08997H27.5" stroke="#292D32" stroke-width="1.5" stroke-miterlimit="10" stroke-linecap="round" stroke-linejoin="round"/>
<path d="M25.7 16.28C26 17.36 26.84 18.2 27.92 18.5" stroke="#292D32" stroke-width="1.5" stroke-miterlimit="10" stroke-linecap="round" stroke-linejoin="round"/>
<path d="M1.81605 34.524V37.32H4.86405V38.22H1.81605V41.1H5.22405V42H0.724049V33.624H5.22405V34.524H1.81605ZM9.32439 40.992L11.3644 35.424H12.5284L9.94839 42H8.67639L6.09639 35.424H7.27239L9.32439 40.992ZM19.603 38.46C19.603 38.668 19.591 38.888 19.567 39.12H14.311C14.351 39.768 14.571 40.276 14.971 40.644C15.379 41.004 15.871 41.184 16.447 41.184C16.919 41.184 17.311 41.076 17.623 40.86C17.943 40.636 18.167 40.34 18.295 39.972H19.471C19.295 40.604 18.943 41.12 18.415 41.52C17.887 41.912 17.231 42.108 16.447 42.108C15.823 42.108 15.263 41.968 14.767 41.688C14.279 41.408 13.895 41.012 13.615 40.5C13.335 39.98 13.195 39.38 13.195 38.7C13.195 38.02 13.331 37.424 13.603 36.912C13.875 36.4 14.255 36.008 14.743 35.736C15.239 35.456 15.807 35.316 16.447 35.316C17.071 35.316 17.623 35.452 18.103 35.724C18.583 35.996 18.951 36.372 19.207 36.852C19.471 37.324 19.603 37.86 19.603 38.46ZM18.475 38.232C18.475 37.816 18.383 37.46 18.199 37.164C18.015 36.86 17.763 36.632 17.443 36.48C17.131 36.32 16.783 36.24 16.399 36.24C15.847 36.24 15.375 36.416 14.983 36.768C14.599 37.12 14.379 37.608 14.323 38.232H18.475ZM24.2484 35.304C25.0484 35.304 25.6964 35.548 26.1924 36.036C26.6884 36.516 26.9364 37.212 26.9364 38.124V42H25.8564V38.28C25.8564 37.624 25.6924 37.124 25.3644 36.78C25.0364 36.428 24.5884 36.252 24.0204 36.252C23.4444 36.252 22.9844 36.432 22.6404 36.792C22.3044 37.152 22.1364 37.676 22.1364 38.364V42H21.0444V35.424H22.1364V36.36C22.3524 36.024 22.6444 35.764 23.0124 35.58C23.3884 35.396 23.8004 35.304 24.2484 35.304ZM30.0521 36.324V40.2C30.0521 40.52 30.1201 40.748 30.2561 40.884C30.3921 41.012 30.6281 41.076 30.9641 41.076H31.7681V42H30.7841C30.1761 42 29.7201 41.86 29.4161 41.58C29.1121 41.3 28.9601 40.84 28.9601 40.2V36.324H28.1081V35.424H28.9601V33.768H30.0521V35.424H31.7681V36.324H30.0521ZM35.4192 42.108C34.9152 42.108 34.4632 42.024 34.0632 41.856C33.6632 41.68 33.3472 41.44 33.1152 41.136C32.8832 40.824 32.7552 40.468 32.7312 40.068H33.8592C33.8912 40.396 34.0432 40.664 34.3152 40.872C34.5952 41.08 34.9592 41.184 35.4072 41.184C35.8232 41.184 36.1512 41.092 36.3912 40.908C36.6312 40.724 36.7512 40.492 36.7512 40.212C36.7512 39.924 36.6232 39.712 36.3672 39.576C36.1112 39.432 35.7152 39.292 35.1792 39.156C34.6912 39.028 34.2912 38.9 33.9792 38.772C33.6752 38.636 33.4112 38.44 33.1872 38.184C32.9712 37.92 32.8632 37.576 32.8632 37.152C32.8632 36.816 32.9632 36.508 33.1632 36.228C33.3632 35.948 33.6472 35.728 34.0152 35.568C34.3832 35.4 34.8032 35.316 35.2752 35.316C36.0032 35.316 36.5912 35.5 37.0392 35.868C37.4872 36.236 37.7272 36.74 37.7592 37.38H36.6672C36.6432 37.036 36.5032 36.76 36.2472 36.552C35.9992 36.344 35.6632 36.24 35.2392 36.24C34.8472 36.24 34.5352 36.324 34.3032 36.492C34.0712 36.66 33.9552 36.88 33.9552 37.152C33.9552 37.368 34.0232 37.548 34.1592 37.692C34.3032 37.828 34.4792 37.94 34.6872 38.028C34.9032 38.108 35.1992 38.2 35.5752 38.304C36.0472 38.432 36.4312 38.56 36.7272 38.688C37.0232 38.808 37.2752 38.992 37.4832 39.24C37.6992 39.488 37.8112 39.812 37.8192 40.212C37.8192 40.572 37.7192 40.896 37.5192 41.184C37.3192 41.472 37.0352 41.7 36.6672 41.868C36.3072 42.028 35.8912 42.108 35.4192 42.108Z" fill="#484C52"/>
<path d="M26.21 15.77L22.6701 19.31C22.5301 19.45 22.4 19.71 22.37 19.9L22.18 21.25C22.11 21.74 22.45 22.0801 22.94 22.0101L24.29 21.82C24.48 21.79 24.75 21.66 24.88 21.52L28.4201 17.9801C29.0301 17.3701 29.3201 16.6601 28.4201 15.7601C27.5301 14.8701 26.82 15.16 26.21 15.77Z" stroke="#292D32" stroke-width="1.5" stroke-miterlimit="10" stroke-linecap="round" stroke-linejoin="round"/>
<path d="M19 22H15C11.5 22 10 20 10 17V8.5C10 5.5 11.5 3.5 15 3.5H23C26.5 3.5 28 5.5 28 8.5V12" stroke="#292D32" stroke-width="1.5" stroke-miterlimit="10" stroke-linecap="round" stroke-linejoin="round"/>
<path d="M18.9955 13.7H19.0045" stroke="#292D32" stroke-width="2" stroke-linecap="round" stroke-linejoin="round"/>
<path d="M15.2943 13.7H15.3033" stroke="#292D32" stroke-width="2" stroke-linecap="round" stroke-linejoin="round"/>
<path d="M15.2943 16.7H15.3033" stroke="#292D32" stroke-width="2" stroke-linecap="round" stroke-linejoin="round"/>
</svg>
