<svg width="48" height="48" viewBox="0 0 48 48" fill="none" xmlns="http://www.w3.org/2000/svg">
<rect width="48" height="48" rx="6" fill="#385898"/>
<path d="M34 14.6719C34 14.0625 33.4375 13.5 32.8281 13.5H14.125C13.5156 13.5 13 14.0625 13 14.6719V33.375C13 33.9844 13.5156 34.5 14.125 34.5H24.2031V26.3906H21.4375V23.2031H24.2031V20.8594C24.2031 18.1875 25.8438 16.6875 28.2812 16.6875C29.4062 16.6875 30.4375 16.7812 30.7188 16.8281V19.6406H29.0312C27.7188 19.6406 27.4844 20.2969 27.4844 21.1875V23.2031H30.625L30.2031 26.3906H27.4844V34.5H32.8281C33.4375 34.5 34 33.9844 34 33.375V14.6719Z" fill="white"/>
</svg>
