<svg width="46" height="46" viewBox="0 0 46 46" fill="none" xmlns="http://www.w3.org/2000/svg">
<rect width="46" height="46" rx="4" fill="white"/>
<path d="M34 23.2111C34 22.3094 33.9251 21.6513 33.7631 20.9689H23.2245V25.039H29.4104C29.2857 26.0505 28.6123 27.5738 27.1156 28.5973L27.0947 28.7336L30.4268 31.2558L30.6576 31.2783C32.7778 29.3651 34 26.5501 34 23.2111Z" fill="#4285F4"/>
<path d="M23.2245 33.9349C26.255 33.9349 28.7992 32.9599 30.6576 31.2783L27.1156 28.5973C26.1678 29.2432 24.8956 29.6941 23.2245 29.6941C20.2562 29.6941 17.737 27.7809 16.8389 25.1365L16.7073 25.1475L13.2425 27.7675L13.1972 27.8905C15.043 31.4732 18.8344 33.9349 23.2245 33.9349Z" fill="#34A853"/>
<path d="M16.839 25.1366C16.602 24.4542 16.4649 23.723 16.4649 22.9675C16.4649 22.2119 16.602 21.4807 16.8265 20.7983L16.8202 20.653L13.312 17.9909L13.1973 18.0443C12.4365 19.531 12 21.2005 12 22.9675C12 24.7344 12.4365 26.4039 13.1973 27.8906L16.839 25.1366Z" fill="#FBBC05"/>
<path d="M23.2245 16.2407C25.3321 16.2407 26.7539 17.1303 27.5646 17.8737L30.7324 14.8515C28.7868 13.0846 26.255 12 23.2245 12C18.8344 12 15.043 14.4616 13.1972 18.0442L16.8265 20.7983C17.737 18.1539 20.2562 16.2407 23.2245 16.2407Z" fill="#E53935"/>
</svg>
