<svg width="288" height="174" viewBox="0 0 288 174" fill="none" xmlns="http://www.w3.org/2000/svg">
<path opacity="0.5" d="M287.975 173.5C287.975 173.5 273.165 132.691 252.5 123.5C231.835 114.309 178.688 118.882 157.5 100.5C136.312 82.118 149.856 60.7732 101 56.5C52.1439 52.2271 55.2516 82.6422 12 54C-10.8532 33.4885 5.99999 -1.52588e-05 5.99999 -1.52588e-05H287.975V72V173.5Z" fill="#A9324F"/>
<path opacity="0.5" d="M288 108C288 108 238.337 103.157 228 80.2535C217.663 57.3504 209.98 35.9926 180.5 37.5C151.02 39.0074 77.2323 27.7742 90.4999 -3.05176e-05H288V108Z" fill="#CA4364"/>
</svg>
