<svg width="42" height="42" viewBox="0 0 42 42" fill="none" xmlns="http://www.w3.org/2000/svg">
<g clip-path="url(#clip0_2_105)">
<path d="M15.8646 0H26.0598C26.492 0 26.8424 0.350379 26.8424 0.78259V8.49195C26.8424 8.92416 26.492 9.27454 26.0598 9.27454H15.8646C15.4323 9.27454 15.082 8.92416 15.082 8.49195V0.78259C15.082 0.350379 15.4323 0 15.8646 0V0Z" fill="#DDDDDD"/>
<path d="M20.1271 1.37421H21.7968V7.20597H20.1271V1.37421Z" fill="#EF5261"/>
<path d="M18.0461 3.45523H23.878V5.12495H18.0461V3.45523Z" fill="#EF5261"/>
<path d="M1.75 17.4399H40.1738V41.9992H1.75V17.4399Z" fill="#E1393A"/>
<path d="M7.49339 10.7061H34.4297V41.999H7.49339V10.7061Z" fill="#DDDDDD"/>
<path d="M6.68309 8.6579H35.2405C35.3585 8.6579 35.4541 8.75353 35.4541 8.87152V11.415C35.4541 11.533 35.3585 11.6286 35.2405 11.6286H6.68309C6.5651 11.6286 6.46947 11.533 6.46947 11.415V8.87152C6.46955 8.75353 6.56518 8.6579 6.68309 8.6579Z" fill="#3E3E3E"/>
<path d="M12.9724 29.7194H28.9519V41.9991H12.9724V29.7194Z" fill="#3E3E3E"/>
<path d="M13.7644 29.5213H28.1596V41.9992H13.7644V29.5213Z" fill="#DDDDDD"/>
<path d="M12.226 28.5312H29.6971C29.836 28.5312 29.9486 28.6438 29.9486 28.7827V29.8644C29.9486 30.0033 29.836 30.1159 29.6971 30.1159H12.226C12.0871 30.1159 11.9745 30.0033 11.9745 29.8644V28.7827C11.9746 28.6438 12.0872 28.5312 12.226 28.5312Z" fill="#3E3E3E"/>
<path d="M20.789 30.1153H21.1357V41.999H20.789V30.1153Z" fill="#3E3E3E"/>
<path d="M10.3408 13.3797H15.7378V18.7766H10.3408V13.3797Z" fill="#E1393A"/>
<path opacity="0.5" d="M13.0434 13.3797L11.2744 18.7751H10.984L12.7525 13.3797H13.0434Z" fill="white"/>
<path opacity="0.5" d="M14.9213 13.3797L13.1521 18.7751H11.9428L13.712 13.3797H14.9213Z" fill="white"/>
<path d="M18.2633 13.3797H23.6603V18.7766H18.2633V13.3797Z" fill="#E1393A"/>
<path opacity="0.5" d="M20.9658 13.3797L19.1973 18.7751H18.9063L20.6754 13.3797H20.9658Z" fill="white"/>
<path opacity="0.5" d="M22.8433 13.3797L21.0742 18.7751H19.8649L21.6335 13.3797H22.8433Z" fill="white"/>
<path d="M26.1855 13.3797H31.5825V18.7766H26.1855V13.3797Z" fill="#E1393A"/>
<path opacity="0.5" d="M28.888 13.3797L27.1188 18.7751H26.8284L28.5976 13.3797H28.888Z" fill="white"/>
<path opacity="0.5" d="M30.7664 13.3797L28.9972 18.7751H27.7875L29.5565 13.3797H30.7664Z" fill="white"/>
<path d="M10.3408 20.9555H15.7378V26.3524H10.3408V20.9555Z" fill="#E1393A"/>
<path opacity="0.5" d="M13.0434 20.9555L11.2744 26.3509H10.984L12.7525 20.9555H13.0434Z" fill="white"/>
<path opacity="0.5" d="M14.9213 20.9555L13.1521 26.3509H11.9428L13.712 20.9555H14.9213Z" fill="white"/>
<path d="M18.2633 20.9555H23.6603V26.3524H18.2633V20.9555Z" fill="#E1393A"/>
<path opacity="0.5" d="M20.9658 20.9555L19.1973 26.3509H18.9063L20.6754 20.9555H20.9658Z" fill="white"/>
<path opacity="0.5" d="M22.8433 20.9555L21.0742 26.3509H19.8649L21.6335 20.9555H22.8433Z" fill="white"/>
<path d="M26.1855 20.9555H31.5825V26.3524H26.1855V20.9555Z" fill="#E1393A"/>
<path opacity="0.5" d="M28.888 20.9555L27.1188 26.3509H26.8284L28.5976 20.9555H28.888Z" fill="white"/>
<path opacity="0.5" d="M30.7664 20.9555L28.9972 26.3509H27.7875L29.5565 20.9555H30.7664Z" fill="white"/>
</g>
<defs>
<clipPath id="clip0_2_105">
<rect width="42" height="41.9991" fill="white"/>
</clipPath>
</defs>
</svg>
