<svg width="42" height="42" viewBox="0 0 42 42" fill="none" xmlns="http://www.w3.org/2000/svg">
<path d="M35.2718 14.1379C35.2718 25.991 21.1359 41.9999 21.1359 41.9999C21.1359 41.9999 7 26.199 7 14.1379C7 6.32978 13.3298 0 21.1379 0C28.946 0 35.2758 6.32978 35.2758 14.1379H35.2718Z" fill="#E1393A"/>
<path d="M21.1359 24.5355C26.9346 24.5355 31.6354 19.8348 31.6354 14.036C31.6354 8.23732 26.9346 3.53653 21.1359 3.53653C15.3372 3.53653 10.6364 8.23732 10.6364 14.036C10.6364 19.8348 15.3372 24.5355 21.1359 24.5355Z" fill="white"/>
<path d="M16.307 8.75L16.3032 8.75193V8.75H16.307Z" fill="white"/>
<path d="M22.4717 9.82559C22.4717 10.6392 21.8122 11.2987 20.9986 11.2987C20.185 11.2987 19.5254 10.6392 19.5254 9.82559C20.4262 10.3908 21.5709 10.3908 22.4717 9.82559V9.82559Z" fill="#F73F40"/>
<path d="M28 11.9364L26.5355 14.3007L24.8053 13.3692V20.1378H17.1927V13.3705L15.4645 14.3006L14 11.9364L16.9146 10.0102C17.0955 9.8906 17.3075 9.82676 17.5244 9.82662L19.3376 9.82559C19.3376 10.743 20.0813 11.4866 20.9986 11.4866C21.916 11.4866 22.6597 10.743 22.6597 9.82559H24.4725C24.6895 9.82559 24.9018 9.88935 25.0829 10.009L28 11.9364Z" fill="#E1393A"/>
<path d="M14.789 11.4159L16.2986 13.8517L16.7811 13.592L15.2612 11.1032L14.789 11.4159Z" fill="#3E3E3E"/>
<path d="M20.9985 11.6943C19.9669 11.6931 19.131 10.8572 19.1298 9.82559H19.545C19.5447 10.6283 20.1951 11.2793 20.9978 11.2797C21.8005 11.2801 22.4516 10.6297 22.452 9.82696C22.452 9.82651 22.452 9.82605 22.452 9.82559H22.8672C22.866 10.8572 22.0301 11.6931 20.9985 11.6943V11.6943Z" fill="#3E3E3E"/>
<path d="M22.2599 16.8392C22.2599 15.5155 21 13.9422 21 13.9422C21 13.9422 19.7395 15.4242 19.7395 16.8392C19.7393 17.535 20.3032 18.0992 20.999 18.0994C21.6948 18.0996 22.259 17.5358 22.2592 16.84C22.2592 16.8397 22.2592 16.8394 22.2592 16.8392" fill="white"/>
<path d="M20.8304 16.122H21.1693V17.443H20.8304V16.122Z" fill="#E1393A"/>
<path d="M20.3396 16.6129H21.6606V16.9518H20.3396V16.6129Z" fill="#E1393A"/>
<path d="M27.211 11.4159L25.7014 13.8517L25.2189 13.592L26.7388 11.1032L27.211 11.4159Z" fill="#3E3E3E"/>
</svg>
