<svg width="42" height="42" viewBox="0 0 42 42" fill="none" xmlns="http://www.w3.org/2000/svg">
<path d="M20.4788 37.5562C19.897 37.5563 19.3184 37.47 18.7619 37.3001L1.42503 31.9985C0.362496 31.6744 -0.236034 30.5503 0.0880378 29.4878C0.41211 28.4253 1.53625 27.8268 2.5987 28.1508C2.60975 28.1542 2.62072 28.1577 2.63169 28.1612C4.22771 28.5841 5.88835 28.7069 7.52919 28.5233C7.67263 28.4977 11.5545 27.8186 14.1051 28.1387C15.8622 28.3105 17.628 28.3759 19.393 28.3343C20.0189 28.3257 20.6359 28.1846 21.2035 27.9204C21.6113 27.7323 21.9878 27.4825 22.3196 27.1798C28.1903 21.8091 34.2939 26.4981 34.356 26.5463C34.5381 26.6894 34.5698 26.9531 34.4267 27.1353C34.2836 27.3174 34.0198 27.3491 33.8376 27.206C33.6107 27.0283 28.2246 22.9169 22.8877 27.7991C21.9327 28.666 20.6944 29.1546 19.4048 29.1733C17.601 29.215 15.7964 29.1474 14.0008 28.971C11.5751 28.6677 7.69379 29.3453 7.65481 29.3525C5.88638 29.5585 4.09481 29.4254 2.37625 28.9602C1.76298 28.7534 1.09821 29.0831 0.891449 29.6963C0.684684 30.3096 1.01433 30.9744 1.62759 31.1811C1.64199 31.1859 1.65639 31.1905 1.67095 31.1948L19.0068 36.4964C19.8921 36.7682 20.8353 36.7891 21.7316 36.5568C24.4103 35.8608 29.4502 34.3626 33.1072 32.1485C33.3006 32.0209 33.5608 32.0743 33.6884 32.2677C33.816 32.4611 33.7625 32.7213 33.5691 32.8489C33.5602 32.8548 33.551 32.8603 33.5416 32.8655C29.7934 35.1349 24.6654 36.6603 21.9422 37.3681C21.4643 37.4927 20.9725 37.5559 20.4788 37.5562Z" fill="#E1393A"/>
<path d="M18.7265 33.7094C16.1656 33.7094 13.5407 33.4374 12.3308 32.4632C11.896 32.1402 11.6195 31.647 11.5713 31.1074C11.4948 30.448 11.7284 29.7904 12.2038 29.3271C13.5407 28.018 16.5548 28.3027 16.6823 28.3171C16.9122 28.3477 17.0738 28.5589 17.0432 28.7888C17.014 29.0082 16.8197 29.1672 16.5989 29.1525C15.8368 29.0766 13.6671 29.0685 12.7908 29.9279C12.496 30.2187 12.3545 30.6309 12.4087 31.0415C12.4408 31.3502 12.6043 31.6301 12.8574 31.8097C14.8549 33.4175 22.2846 32.8121 24.9792 32.4423C25.2089 32.4109 25.4206 32.5717 25.452 32.8013C25.4833 33.031 25.3226 33.2427 25.0929 33.2741C22.9815 33.5477 20.8554 33.6931 18.7265 33.7094Z" fill="#E1393A"/>
<path d="M37.1546 23.8688V34.853H32.6269C32.3952 34.853 32.2075 34.6652 32.2075 34.4336V24.2882C32.2075 24.0565 32.3953 23.8688 32.6269 23.8688H37.1546Z" fill="#3E3E3E"/>
<path d="M36.4444 22.891H41.5805C41.8122 22.891 42 23.0788 42 23.3104V35.378C42 35.6097 41.8122 35.7974 41.5805 35.7974H36.4444C36.2127 35.7974 36.025 35.6096 36.025 35.378V23.3104C36.025 23.0788 36.2128 22.891 36.4444 22.891Z" fill="#E1393A"/>
<path d="M13.7173 14.7089C13.718 16.0052 13.1077 17.2261 12.0701 18.0033C11.3592 18.5361 10.4945 18.8236 9.60601 18.8228C7.33484 18.8222 5.49418 16.9806 5.49469 14.7094C5.49469 14.7086 5.49469 14.7077 5.49469 14.7068C5.49469 10.087 9.60601 5.24988 9.60601 5.24988C10.8044 6.80357 11.8185 8.49103 12.6279 10.2785C12.9652 11.0332 13.2371 11.8154 13.4407 12.6166C13.6172 13.3003 13.7101 14.0028 13.7173 14.7089Z" fill="#E1393A"/>
<path d="M22.2544 18.3592C22.2544 12.5475 16.7265 5.64014 16.7265 5.64014C16.7265 5.64014 11.1919 12.1448 11.1919 18.3592C11.1905 21.4142 13.6659 23.8919 16.721 23.8933C19.776 23.8946 22.2537 21.4192 22.255 18.3641C22.255 18.3625 22.255 18.3608 22.255 18.3592" fill="#E1393A"/>
</svg>
